<?xml version="1.0" encoding="UTF-8"?>
<svg width="20px" height="20px" viewBox="0 0 20 20" version="1.1" xmlns="http://www.w3.org/2000/svg" xmlns:xlink="http://www.w3.org/1999/xlink">
    <title>zhuge_ai_logo_loading1</title>
    <defs>
        <linearGradient x1="50%" y1="93.0880632%" x2="50%" y2="33.3773932%" id="linearGradient-1">
            <stop stop-color="#FFFFFF" offset="0%"></stop>
            <stop stop-color="#F3FAFF" offset="100%"></stop>
        </linearGradient>
    </defs>
    <g stroke="none" stroke-width="1" fill="none" fill-rule="evenodd">
        <g>
            <g fill="#1267FF">
                <rect x="0" y="0" width="20" height="20" rx="10"></rect>
            </g>
            <g transform="translate(2.000000, 4.000000)">
                <path d="M8.08313552,-2.27373675e-13 C8.35017051,-2.27373675e-13 8.56664514,0.216474632 8.56664514,0.483509624 C8.56664514,0.694821867 8.43108876,0.87447322 8.24219139,0.940248277 L8.24196609,1.54259151 L8.75849512,1.54259151 C8.94867586,1.54259151 9.10284781,1.69676346 9.10284781,1.8869442 L9.10284781,2.05912054 L10.6650436,2.05912054 C12.6648498,2.05912054 14.286013,3.68028373 14.286013,5.68008988 L14.286013,6.2335066 C14.8430373,6.46445117 16.6243619,9.03120937 15.7448172,9.63829515 C15.3224467,9.92982688 14.7409644,9.81925292 14.0003703,9.30657326 C13.4504483,10.6048312 12.1641303,11.5158019 10.6650436,11.5158019 L5.50122741,11.5158019 C3.99138913,11.5158019 2.6973824,10.5917172 2.15393296,9.2782734 C1.32941451,9.83386187 0.728785369,9.92435644 0.352083425,9.55065986 C-0.410441577,8.79421836 1.30583919,6.4473362 1.88025807,6.2335066 L1.88025807,5.68008988 C1.88025807,3.68028373 3.50142126,2.05912054 5.50122741,2.05912054 L7.03673169,2.05912054 L7.03673169,1.8869442 C7.03673169,1.69676346 7.19090364,1.54259151 7.38108438,1.54259151 L7.89761341,1.54259151 L7.89673327,0.929780327 C7.72223618,0.856809573 7.59962589,0.684478181 7.59962589,0.483509624 C7.59962589,0.216474632 7.81610053,-2.27373675e-13 8.08313552,-2.27373675e-13 Z" fill="url(#linearGradient-1)"></path>
                <rect fill="#130095" x="3.43437426" y="3.96547531" width="9.29752251" height="4.13223223" rx="2.06611611"></rect>
                <path d="M5.41455115,4.91895393 C4.80005843,4.91895393 4.30191366,5.4170987 4.30191366,6.03159142 C4.30191366,6.64608414 4.80005843,7.14422891 5.41455115,7.14422891 C6.02904387,7.14422891 6.52718864,6.64608414 6.52718864,6.03159142 C6.52718864,5.4170987 6.02904387,4.91895393 5.41455115,4.91895393 Z M5.41455115,5.26330661 C5.83886313,5.26330661 6.18283595,5.60727944 6.18283595,6.03159142 C6.18283595,6.4559034 5.83886313,6.79987622 5.41455115,6.79987622 C4.99023917,6.79987622 4.64626634,6.4559034 4.64626634,6.03159142 C4.64626634,5.60727944 4.99023917,5.26330661 5.41455115,5.26330661 Z" fill="#498AFF" fill-rule="nonzero"></path>
                <path d="M10.7320143,4.91895393 C10.1175216,4.91895393 9.61937683,5.4170987 9.61937683,6.03159142 C9.61937683,6.64608414 10.1175216,7.14422891 10.7320143,7.14422891 C11.346507,7.14422891 11.8446518,6.64608414 11.8446518,6.03159142 C11.8446518,5.4170987 11.346507,4.91895393 10.7320143,4.91895393 Z M10.7320143,5.26330661 C11.1563263,5.26330661 11.5002991,5.60727944 11.5002991,6.03159142 C11.5002991,6.4559034 11.1563263,6.79987622 10.7320143,6.79987622 C10.3077023,6.79987622 9.96372952,6.4559034 9.96372952,6.03159142 C9.96372952,5.60727944 10.3077023,5.26330661 10.7320143,5.26330661 Z" fill="#498AFF" fill-rule="nonzero"></path>
            </g>
            <animateTransform
                attributeName="transform"
                attributeType="XML"
                type="rotate"
                from="0 10 10"
                to="360 10 10"
                dur="2s"
                repeatCount="indefinite" />
        </g>
    </g>
</svg>