<svg viewBox="0 0 27 25" version="1.1" xmlns="http://www.w3.org/2000/svg" xmlns:xlink="http://www.w3.org/1999/xlink" class="w-5 h-5 mr-2"><g stroke="none" stroke-width="1" fill="none" fill-rule="evenodd"><g transform="translate(-1206.000000, -1244.000000)"><g transform="translate(1206.684776, 1244.000000)"><g transform="translate(0.308678, 0.800000)"><rect stroke="#979797" fill="#D8D8D8" opacity="0" x="1" y="0" width="24" height="24"></rect><g transform="translate(0.500000, 1.500000)" fill="#FFFFFF" fill-rule="nonzero"><g><path d="M12.396337,0.75 C12.9026503,0.75 13.3130983,1.16044804 13.3130983,1.66676137 C13.3130983,2.0930728 13.0221114,2.4514206 12.6279213,2.5540211 L12.6272373,3.852 L13.3156137,3.85249828 C13.6621861,3.85249828 13.952879,4.09174683 14.0315421,4.41409373 L15.8301254,4.41479351 C18.8787372,4.41479351 21.3501254,6.88618169 21.3501254,9.93479351 L21.3501254,9.93479351 L21.3502358,10.3384212 C23.2144808,11.29283 24.6672454,14.7797415 23.4401274,15.8650449 C22.651534,16.5625026 21.7079378,16.3414125 20.6967028,15.3439261 C19.7663119,17.0764377 17.9359213,18.2555883 15.8301254,18.2555883 L15.8301254,18.2555883 L8.96254851,18.2555883 C6.83228989,18.2555883 4.9838725,17.0488826 4.06355786,15.2817327 C3.02862086,16.3320026 2.06253224,16.5767412 1.25783989,15.8650449 C0.00997480054,14.7613921 1.53337664,11.1742361 3.44263057,10.2922078 L3.44254851,9.93479351 C3.44254851,6.88618169 5.91393669,4.41479351 8.96254851,4.41479351 L8.96254851,4.41479351 L10.724324,4.41409373 C10.8029872,4.09174683 11.0936801,3.85249828 11.4402525,3.85249828 L11.4402525,3.85249828 L12.1402373,3.852 L12.140565,2.54736813 C11.7917904,2.44624215 11.5287013,2.14352926 11.4857433,1.77367511 L11.4795756,1.66676137 C11.4795756,1.16044804 11.8900236,0.75 12.396337,0.75 Z M15.8301254,5.21479351 L8.96254851,5.21479351 C6.35576449,5.21479351 4.24254851,7.32800949 4.24254851,9.93479351 L4.24254851,9.93479351 L4.24254851,12.7355883 C4.24254851,15.3423723 6.35576449,17.4555883 8.96254851,17.4555883 L8.96254851,17.4555883 L15.8301254,17.4555883 C18.4369094,17.4555883 20.5501254,15.3423723 20.5501254,12.7355883 L20.5501254,12.7355883 L20.5501254,9.93479351 C20.5501254,7.32800949 18.4369094,5.21479351 15.8301254,5.21479351 L15.8301254,5.21479351 Z M1.7878376,15.2657933 C2.22144564,15.6492905 2.79456605,15.4828326 3.60996424,14.5992084 L3.72183661,14.4739383 C3.54063697,13.9273829 3.44254851,13.3429405 3.44254851,12.7355883 L3.44254851,12.7355883 L3.44257696,11.2125557 C2.14675849,12.1236909 1.1171317,14.672599 1.7878376,15.2657933 Z M21.3499803,11.282303 L21.3501254,12.7355883 C21.3501254,13.3714564 21.24261,13.982213 21.0447666,14.5506705 L21.088003,14.5992084 C21.9034012,15.4828326 22.4765216,15.6492905 22.9101296,15.2657933 C23.5644298,14.6871088 22.6005617,12.2472155 21.3499803,11.282303 Z M15.9578131,7.04366302 C17.7522862,7.04366302 19.206994,8.49837087 19.206994,10.2928439 C19.206994,12.087317 17.7522862,13.5420249 15.9578131,13.5420249 L15.9578131,13.5420249 L8.83486079,13.5420249 C7.04038771,13.5420249 5.58567986,12.087317 5.58567986,10.2928439 C5.58567986,8.49837087 7.04038771,7.04366302 8.83486079,7.04366302 L8.83486079,7.04366302 Z M15.9578131,7.84366302 L8.83486079,7.84366302 C7.48221551,7.84366302 6.38567986,8.94019867 6.38567986,10.2928439 C6.38567986,11.6454892 7.48221551,12.7420249 8.83486079,12.7420249 L8.83486079,12.7420249 L15.9578131,12.7420249 C17.3104584,12.7420249 18.406994,11.6454892 18.406994,10.2928439 C18.406994,8.94019867 17.3104584,7.84366302 15.9578131,7.84366302 L15.9578131,7.84366302 Z M8.87595741,9.07376957 C9.54923359,9.07376957 10.0950318,9.61956776 10.0950318,10.2928439 C10.0950318,10.9661201 9.54923359,11.5119183 8.87595741,11.5119183 C8.20268122,11.5119183 7.65688303,10.9661201 7.65688303,10.2928439 C7.65688303,9.61956776 8.20268122,9.07376957 8.87595741,9.07376957 Z M16.2087567,9.07376957 C16.8820328,9.07376957 17.427831,9.61956776 17.427831,10.2928439 C17.427831,10.9661201 16.8820328,11.5119183 16.2087567,11.5119183 C15.5354805,11.5119183 14.9896823,10.9661201 14.9896823,10.2928439 C14.9896823,9.61956776 15.5354805,9.07376957 16.2087567,9.07376957 Z"></path>
<animateTransform
    attributeName="transform"
    attributeType="XML"
    type="rotate"
    from="0 12 12"
    to="360 12 12"
    dur="2s"
    repeatCount="indefinite"
  /></g></g></g></g></g></g></svg>