<svg xmlns="http://www.w3.org/2000/svg" xmlns:xlink="http://www.w3.org/1999/xlink" fill="none" version="1.1" width="16" height="15.999999046325684" viewBox="0 0 16 15.999999046325684"><defs><clipPath id="master_svg0_16_34830"><rect x="0" y="0" width="16" height="15.999999046325684" rx="0"/></clipPath></defs><g clip-path="url(#master_svg0_16_34830)"><g><g><path d="M10.9096,1.000877976C10.96262,1.000883341,11.01346,1.0219377,11.05096,1.0594139L13.9414,3.94809C13.9789,3.9856,14,4.036490000000001,14,4.08955L14,6.5L13,6.5L13,4.999890000000001L10.2,4.999890000000001C10.08954,4.999890000000001,10,4.91035,10,4.7998899999999995L10,1.930888L3,1.9958879999999999L3,14.0009L6,14.0009L6,15.0009L2.2,15.0009C2.0895431,15.0009,2,14.9114,2,14.8009L2,1.2C2,1.0895351,2.0895553,1,2.20002,1L10.9096,1.000877976ZM7.99922,10.20063L7.9998,10.80069C7.99991,10.91122,7.91034,11.0009,7.7998,11.0009L4.2,11.0009C4.0895399999999995,11.0009,4,10.91129,4,10.80083L4,10.20083C4,10.09038,4.0895399999999995,10.00083,4.2,10.00083L7.79922,10.00082C7.9096,10.00082,7.99911,10.09025,7.99922,10.20063M11,7.00082C11.11046,7.00082,11.2002,7.09039,11.2002,7.20084L11.2002,7.80084C11.2002,7.9113,11.11046,8.000820000000001,11,8.000820000000001L4.2,8.00083C4.0895399999999995,8.00083,4,7.91129,4,7.80083L4,7.20083C4,7.09038,4.0895399999999995,7.00083,4.2,7.00083L11,7.00082ZM10.99599,2.41828L11,3.99989L12.5821,4.00347L10.99599,2.41828Z" fill-rule="evenodd" fill="#A1A7B3" fill-opacity="1"/></g></g><g><path d="M10.78125,14.16367L8.330876,14.80134C8.182857,14.83986,8.0481386,14.704740000000001,8.0871057,14.556840000000001L8.730957,12.11307L13.19646,7.641621C13.27455,7.5634231,13.40127,7.5633861,13.47941,7.641539L15.24688,9.4093C15.32494,9.48737,15.32497,9.61392,15.24696,9.69204L10.78125,14.16367ZM9.37061,13.56915L9.60059,12.651L13.3584,8.94009L14,9.58136L10.23926,13.295069999999999L9.37061,13.56915Z" fill-rule="evenodd" fill="#A1A7B3" fill-opacity="1"/></g></g></svg>