<?xml version="1.0" standalone="no"?>
<!DOCTYPE svg PUBLIC "-//W3C//DTD SVG 20010904//EN"
 "http://www.w3.org/TR/2001/REC-SVG-20010904/DTD/svg10.dtd">
<svg version="1.0" xmlns="http://www.w3.org/2000/svg"
 width="474.000000pt" height="474.000000pt" viewBox="0 0 474.000000 474.000000"
 preserveAspectRatio="xMidYMid meet">
<metadata>
Created by potrace 1.16, written by Peter Selinger 2001-2019
</metadata>
<g transform="translate(0.000000,474.000000) scale(0.100000,-0.100000)"
fill="#000000" stroke="none">
<path d="M1688 4029 c-21 -5 -65 -22 -98 -39 -61 -31 -97 -63 -485 -434 -110
-105 -228 -218 -262 -250 -69 -65 -115 -144 -133 -226 -8 -40 -10 -320 -8
-1050 l3 -995 23 -55 c33 -78 87 -146 154 -196 115 -84 38 -79 1133 -79 l970
0 75 36 c137 65 226 184 250 333 12 74 12 326 1 326 -4 0 -52 -37 -107 -83
-54 -45 -114 -93 -131 -106 -26 -17 -33 -29 -33 -55 0 -44 -18 -96 -44 -125
-47 -53 -17 -51 -988 -51 -890 0 -902 0 -944 21 -31 15 -48 32 -63 63 -21 42
-21 53 -21 1003 0 654 3 970 11 991 7 20 128 143 351 356 271 259 349 328 379
336 24 7 250 9 628 8 582 -3 590 -3 618 -24 15 -12 37 -36 48 -55 19 -32 20
-57 25 -488 l5 -454 138 118 139 118 -4 356 c-5 399 -7 412 -78 518 -45 68
-126 132 -208 165 l-57 23 -625 2 c-344 1 -642 -3 -662 -8z"/>
<path d="M1760 3342 c-88 -47 -93 -190 -8 -242 32 -19 49 -20 458 -20 404 0
427 1 457 20 81 49 84 183 7 235 -27 19 -51 20 -454 23 -398 2 -427 1 -460
-16z"/>
<path d="M3637 2820 c-78 -20 -100 -36 -427 -308 -58 -48 -232 -193 -387 -321
-156 -128 -298 -251 -317 -272 -26 -31 -53 -94 -115 -267 -53 -145 -80 -235
-76 -249 3 -13 15 -29 28 -37 19 -13 46 -11 231 14 114 16 238 38 275 49 73
23 80 28 302 215 391 329 461 388 588 494 255 213 280 246 289 389 4 75 2 87
-22 137 -31 64 -70 99 -145 134 -60 28 -161 37 -224 22z"/>
<path d="M1273 2750 c-87 -53 -95 -167 -15 -228 l35 -27 666 0 c524 0 672 3
696 13 50 22 70 58 70 130 0 61 -2 65 -37 98 l-38 34 -672 0 c-649 0 -674 -1
-705 -20z"/>
</g>
</svg>
