<svg xmlns="http://www.w3.org/2000/svg" xmlns:xlink="http://www.w3.org/1999/xlink" fill="none" version="1.1" width="16" height="16" viewBox="0 0 16 16"><g><g><path d="M2.25,14C2.111929,14,2,13.8881,2,13.75L2,3.25C2,3.111929,2.111929,3,2.25,3L7.75,3C7.88807,3,8,3.111929,8,3.25L8,3.75C8,3.888071,7.88807,4,7.75,4L3,4L3,13L7.75,13C7.88807,13,8,13.1119,8,13.25L8,13.75C8,13.8881,7.88807,14,7.75,14L2.25,14ZM10.14142,12.59386L14.1012,8.63406C14.1793,8.555959999999999,14.1793,8.42932,14.1012,8.35122L10.14142,4.39142C10.06332,4.31332,9.936679999999999,4.31332,9.85858,4.39142L9.43431,4.81569C9.35621,4.89379,9.35621,5.02042,9.43431,5.09853L12.3358,8L5.4137900000000005,8L5.2,8C5.0895399999999995,8,5,8.08954,5,8.2L5,8.8C5,8.91046,5.0895399999999995,9,5.2,9L5.4137900000000005,9L12.3211,9L9.43431,11.88675C9.35621,11.96486,9.35621,12.09149,9.43431,12.1696L9.85858,12.59386C9.936679999999999,12.67196,10.06332,12.67196,10.14142,12.59386" fill-rule="evenodd" fill="#5C5C5C" fill-opacity="1"/></g></g></svg>