<svg xmlns="http://www.w3.org/2000/svg" xmlns:xlink="http://www.w3.org/1999/xlink" fill="none" version="1.1" width="16" height="16" viewBox="0 0 16 16"><g><g><g><path d="M15.311755548477173,8.521822498111725L13.205755548477173,8.521822498111725L13.205755548477173,8.529612498111725Q12.718655548477173,8.365102498111725,12.205755548477173,8.328042498111724L12.205755548477173,7.5218224981117245L12.897555548477174,7.5218224981117245L7.999985548477173,2.624262498111725L3.102465548477173,7.5218224981117245L3.804335548477173,7.5218224981117245L3.804335548477173,11.959642498111725Q3.804335548477173,12.166742498111725,3.950785548477173,12.313242498111725Q4.097225548477173,12.459642498111725,4.304335548477173,12.459642498111725L7.882095548477173,12.459642498111725Q7.895715548477173,12.969342498111725,8.035725548477174,13.459642498111725L4.304335548477173,13.459642498111725Q3.6830155484771727,13.459642498111725,3.2436755484771727,13.020342498111726Q2.804335548477173,12.580942498111725,2.804335548477173,11.959642498111725L2.804335548477173,8.521822498111725L0.6882629394571729,8.521822498111725L7.505005548477173,1.705026498111725Q7.7100355484771725,1.500000655611725,7.999985548477173,1.5000000000117248Q8.289935548477173,1.4999993443117248,8.494955548477172,1.7050254981117248L15.311755548477173,8.521822498111725Z" fill-rule="evenodd" fill="#5C5C5C" fill-opacity="1"/></g></g><g transform="matrix(0.9685600399971008,-0.2487797886133194,0.2487797886133194,0.9685600399971008,-2.174259355554568,2.284154035387701)"><path d="M10.887606430664063,13.940314765625C11.586716430664062,13.943914765625,12.155796430664061,13.378984765624999,12.157306430664063,12.679864765625C12.158806430664063,11.980744765625,11.592166430664061,11.413364765625,10.893046430664063,11.413954765625C10.193926430664062,11.414554765625,9.628246430664063,11.982904765625,9.630946430664062,12.682024765625C9.631846430664062,13.375944765625,10.193676430664063,13.938514765625001,10.887606430664063,13.940314765625ZM7.949966773076063,12.682024765625C7.949868090064062,12.473364765625,7.969540230664062,12.265164765625,8.008719530664063,12.060224765625C8.366690430664063,12.020004765625,8.682384430664062,11.807304765625,8.854106430664062,11.490644765625C9.037296430664062,11.159544765625,9.053026430664062,10.761294765625,8.896538430664062,10.416776765625C9.208716430664062,10.112924765625,9.585196430664062,9.883129765625,9.998156430664062,9.744384765625C10.420426430664062,10.405350765625,11.385796430664062,10.405350765625,11.808066430664063,9.744384765625C12.219896430664061,9.886427765625,12.594656430664063,10.118979765625,12.904786430664062,10.424937765625C12.752996430664062,10.768504765625,12.772356430664063,11.163564765625,12.957006430664062,11.490644765625C13.126116430664062,11.793814765625001,13.428786430664061,11.999024765625,13.773016430664063,12.043904765625C13.860956430664062,12.491994765625,13.853166430664063,12.953614765625,13.750166430664063,13.398474765625C13.413906430664063,13.456014765625,13.122706430664064,13.664794765625,12.960266430664063,13.964794765625001C12.793256430664062,14.264194765625,12.763516430664062,14.621084765625,12.878666430664062,14.944004765625C12.556226430664061,15.253344765625,12.167056430664061,15.484504765625001,11.741146430664063,15.619654765625C11.312546430664062,15.066644765625,10.477356430664063,15.066644765625,10.048746430664062,15.619654765625C9.629756430664063,15.485784765624999,9.246836430664063,15.258044765625,8.929179430664062,14.953794765625C9.051386430664063,14.626454765624999,9.023946430664063,14.261984765625,8.854106430664062,13.956634765625001C8.688039430664062,13.647914765625,8.385141430664062,13.436494765625,8.038095930664063,13.387054765624999C7.982919230664063,13.155994765625,7.953364590664062,12.919554765625,7.949966773076063,12.682024765625Z" fill="#5C5C5C" fill-opacity="1"/></g><g><rect x="0" y="0" width="16" height="15.999999046325684" rx="0" fill="#D8D8D8" fill-opacity="0"/></g></g></svg>