<svg xmlns="http://www.w3.org/2000/svg" xmlns:xlink="http://www.w3.org/1999/xlink" fill="none" version="1.1" width="16" height="16" viewBox="0 0 16 16"><g><g><path d="M8,15C11.866,15,15,11.866,15,8C15,4.13401,11.866,1,8,1C4.13401,1,1,4.13401,1,8C1,11.866,4.13401,15,8,15ZM8,14C4.68629,14,2,11.3137,2,8C2,4.68629,4.68629,2,8,2C11.3137,2,14,4.68629,14,8C14,11.3137,11.3137,14,8,14ZM11,6.5C11,7.9865,9.91886,9.22048,8.5,9.45852L8.5,10.3C8.5,10.41046,8.41046,10.5,8.3,10.5L7.7,10.5C7.58954,10.5,7.5,10.41046,7.5,10.3L7.5,8.7C7.5,8.58954,7.58954,8.5,7.7,8.5L8,8.5C9.10457,8.5,10,7.60457,10,6.5C10,5.39543,9.10457,4.5,8,4.5C6.96274,4.5,6.10991,5.28963,6.00982,6.30056C5.99894,6.41047,5.91046,6.5,5.8,6.5L5.2,6.5C5.08954,6.5,4.99927,6.41144,5.00648,6.30122C5.1088,4.73704,6.40994,3.5,8,3.5C9.65685,3.5,11,4.84315,11,6.5ZM7.26318,12.25C7.26318,11.8358,7.59897,11.5,8.01318,11.5C8.427399999999999,11.5,8.76318,11.8358,8.76318,12.25C8.76318,12.6642,8.427399999999999,13,8.01318,13C7.59897,13,7.26318,12.6642,7.26318,12.25Z" fill-rule="evenodd" fill="#D8D8D8" fill-opacity="1"/></g></g></svg>