<svg xmlns="http://www.w3.org/2000/svg" xmlns:xlink="http://www.w3.org/1999/xlink" fill="none" version="1.1" width="32" height="32" viewBox="0 0 32 32"><defs><clipPath id="master_svg0_82_10240"><rect x="32" y="0" width="32" height="32" rx="0"/></clipPath><linearGradient x1="0.44427943229675293" y1="-0.4838930070400238" x2="0.5" y2="1.1656800508499146" id="master_svg1_82_08348"><stop offset="0%" stop-color="#FFFFFF" stop-opacity="1"/><stop offset="100%" stop-color="#E1E5EB" stop-opacity="1"/></linearGradient><linearGradient x1="0.8882451057434082" y1="0.22129973769187927" x2="0.7414655089378357" y2="0.9154857397079468" id="master_svg2_82_08353"><stop offset="0%" stop-color="#25EBAA" stop-opacity="1"/><stop offset="100%" stop-color="#1EC28D" stop-opacity="1"/></linearGradient><linearGradient x1="0.44427943229675293" y1="-0.4838930070400238" x2="0.5" y2="1.1656800508499146" id="master_svg3_82_08354"><stop offset="0%" stop-color="#FFFFFF" stop-opacity="1"/><stop offset="100%" stop-color="#E1E5EB" stop-opacity="1"/></linearGradient></defs><g transform="matrix(-1,0,0,1,64,0)" clip-path="url(#master_svg0_82_10240)"><g><g></g><g><path d="M47.7992,29.9986C40.15977,29.8912,34,23.6649,34,16C34,8.26801,40.268010000000004,2,48,2C55.6649,2,61.8912,8.15977,61.998599999999996,15.7992C62.0002,15.9106,61.9097,16,61.7983,16L55.2017,16C55.0903,16,55.000299999999996,15.9109,54.9972,15.7995C54.8911,12.0262,51.7989,9,48,9C44.134,9,41,12.134,41,16C41,19.7989,44.0262,22.8911,47.7995,22.9972C47.9109,23.0003,48,23.0903,48,23.2017L48,29.7983C48,29.9097,47.9106,30.0002,47.7992,29.9986" fill-rule="evenodd" fill="url(#master_svg1_82_08348)" fill-opacity="1"/></g><g transform="matrix(-0.7071067690849304,0.7071067690849304,0.7071067690849304,0.7071067690849304,80.51944672141053,-33.352246183326315)"><path d="M54.37890625,17.666598754882813L54.37890625,27.394598754882814C54.37890625,27.53599875488281,54.49352125,27.650598754882814,54.63490625,27.650598754882814L61.16290625,27.650598754882814C61.30428625,27.650598754882814,61.41890625,27.53599875488281,61.41890625,27.394598754882814L61.41890625,17.666598754882813C61.41890625,17.525213754882813,61.30428625,17.410598754882812,61.16290625,17.410598754882812L54.63490625,17.410598754882812C54.49352125,17.410598754882812,54.37890625,17.525213754882813,54.37890625,17.666598754882813Z" fill="url(#master_svg2_82_08353)" fill-opacity="1"/><path d="M54.37890625,17.666598754882813L54.37890625,27.394598754882814C54.37890625,27.53599875488281,54.49352125,27.650598754882814,54.63490625,27.650598754882814L61.16290625,27.650598754882814C61.30428625,27.650598754882814,61.41890625,27.53599875488281,61.41890625,27.394598754882814L61.41890625,17.666598754882813C61.41890625,17.525213754882813,61.30428625,17.410598754882812,61.16290625,17.410598754882812L54.63490625,17.410598754882812C54.49352125,17.410598754882812,54.37890625,17.525213754882813,54.37890625,17.666598754882813Z" fill="url(#master_svg3_82_08354)" fill-opacity="1"/></g></g></g></svg>