<svg xmlns="http://www.w3.org/2000/svg" xmlns:xlink="http://www.w3.org/1999/xlink" fill="none" version="1.1" width="16" height="16" viewBox="0 0 16 16"><g><g><path d="M13.499959375,6L9.999999375,6L9.999999375,2.5Q9.999999375,2.450754,9.990389375,2.402455Q9.980779375000001,2.354155,9.961939375,2.308658Q9.943089375,2.263161,9.915729375,2.222215Q9.888369375,2.181269,9.853549375,2.146447Q9.818729375,2.111625,9.777779375,2.0842652Q9.736839374999999,2.0569057,9.691339375,2.0380602Q9.645839375000001,2.0192147,9.597539375,2.00960736Q9.549249374999999,2,9.499999375,2L7.499999375,2Q7.450759375,2,7.402459375,2.00960736Q7.354159375,2.0192147,7.308659375,2.0380602Q7.263159375,2.0569057,7.222219375,2.0842652Q7.181269375,2.111625,7.146449375,2.146447Q7.111619375,2.181269,7.084259375,2.222215Q7.056899375,2.263161,7.038059375,2.308658Q7.019209375,2.354155,7.009609375,2.402455Q6.999999375,2.450754,6.999999375,2.5L6.999999375,6L3.500000375,6Q3.450754375,6,3.402454375,6.00961Q3.354155375,6.01921,3.3086583750000003,6.03806Q3.263161375,6.05691,3.222215375,6.08426Q3.181268375,6.11162,3.146446375,6.14645Q3.111624375,6.18127,3.084265375,6.22221Q3.056905375,6.26316,3.038060375,6.30866Q3.019214375,6.35415,3.009607375,6.40245Q3.000000375,6.45075,3.000000375,6.5L3.000000375,7.5Q3.000000375,7.54924,3.009607375,7.59754Q3.019214375,7.64584,3.038060375,7.69134Q3.056905375,7.73684,3.084265375,7.77778Q3.111624375,7.81873,3.146446375,7.85355Q3.181268375,7.88837,3.222214375,7.91573Q3.263161375,7.94309,3.3086583750000003,7.96194Q3.354155375,7.98078,3.402454375,7.99039Q3.450754375,8,3.500000375,8L13.499959375,8Q13.549259375,8,13.597559375,7.99039Q13.645859375,7.98078,13.691359375,7.96194Q13.736859375,7.94309,13.777759375,7.91573Q13.818759375,7.88837,13.853559375,7.85355Q13.888359375,7.81873,13.915759375,7.77778Q13.943059375,7.73684,13.961959375,7.69134Q13.980759375,7.64584,13.990359375,7.59754Q13.999959375,7.54924,13.999959375,7.5L13.999959375,6.5Q13.999959375,6.45075,13.990359375,6.40245Q13.980759375,6.35415,13.961959375,6.30866Q13.943059375,6.26316,13.915759375,6.22221Q13.888359375,6.18127,13.853559375,6.14645Q13.818759375,6.11162,13.777759375,6.08426Q13.736859375,6.05691,13.691359375,6.03806Q13.645859375,6.01921,13.597559375,6.00961Q13.549259375,6,13.499959375,6ZM3.454355375,9L13.449659375,9C13.744859375,9,13.975759375,9.25428,13.947359375,9.54804L13.561259375,13.548C13.536559375,13.8044,13.321059375,14,13.063559375,14L6.751519375,14L7.000049375,12L6.000049375,12L5.751519375,14L3.068222375,14C2.773096375,14,2.542178275,13.7457,2.570535885,13.452L2.956668375,9.45196C2.981414375,9.19562,3.196821375,9,3.454355375,9Z" fill-rule="evenodd" fill="#CCCCCC" fill-opacity="1"/></g></g></svg>