<svg xmlns="http://www.w3.org/2000/svg" xmlns:xlink="http://www.w3.org/1999/xlink" fill="none" version="1.1" width="16" height="16" viewBox="0 0 16 16"><g><g><path d="M3,3.5L3,10.5Q3,10.54925,3.00960736,10.59754Q3.0192147,10.64584,3.0380602,10.69134Q3.0569057,10.73684,3.0842652,10.77778Q3.111625,10.81873,3.146447,10.85355Q3.181269,10.88837,3.222215,10.91573Q3.263161,10.94309,3.308658,10.96194Q3.354155,10.98078,3.402455,10.99039Q3.450754,11,3.5,11L10.500029999999999,11Q10.54927,11,10.597570000000001,10.99039Q10.64587,10.98078,10.69137,10.96194Q10.73686,10.94309,10.777809999999999,10.91573Q10.818760000000001,10.88837,10.853580000000001,10.85355Q10.8884,10.81873,10.915759999999999,10.77778Q10.94312,10.73684,10.96197,10.69134Q10.98081,10.64584,10.99042,10.59754Q11.00003,10.54925,11.00003,10.5L11.00003,3.5Q11.00003,3.450754,10.99042,3.402455Q10.98081,3.354155,10.96197,3.308658Q10.94312,3.263161,10.915759999999999,3.222215Q10.8884,3.181269,10.853580000000001,3.146447Q10.818760000000001,3.111625,10.777809999999999,3.0842652Q10.73686,3.0569057,10.69137,3.0380602Q10.64587,3.0192147,10.597570000000001,3.00960736Q10.54927,3,10.500029999999999,3L3.5,3Q3.450754,3,3.402455,3.00960736Q3.354155,3.0192147,3.308658,3.0380602Q3.263161,3.0569057,3.222215,3.0842652Q3.181269,3.111625,3.146447,3.146447Q3.111625,3.181269,3.0842652,3.222215Q3.0569057,3.263161,3.0380602,3.308658Q3.0192147,3.354155,3.00960736,3.402455Q3,3.450754,3,3.5ZM6,13.5L6,12L11.50003,12Q11.54928,12,11.59758,11.99039Q11.64587,11.98078,11.69137,11.96194Q11.73687,11.94309,11.77781,11.91573Q11.81876,11.88837,11.85358,11.85355Q11.8884,11.81873,11.91577,11.77778Q11.94312,11.73684,11.96197,11.69134Q11.98081,11.64584,11.99042,11.59754Q12.00003,11.54924,12.00003,11.5L12.00003,6L13.5,6Q13.5493,6,13.5976,6.00961Q13.6459,6.01921,13.6914,6.03806Q13.7369,6.05691,13.7778,6.0842600000000004Q13.8188,6.11162,13.8536,6.14645Q13.8884,6.18127,13.9158,6.2222100000000005Q13.9431,6.26316,13.962,6.30866Q13.9808,6.354150000000001,13.9904,6.40245Q14,6.45075,14,6.5L14,13.5Q14,13.5492,13.9904,13.5975Q13.9808,13.6458,13.962,13.6913Q13.9431,13.7368,13.9158,13.7778Q13.8884,13.8187,13.8536,13.8536Q13.8188,13.8884,13.7778,13.9157Q13.7369,13.9431,13.6914,13.9619Q13.6459,13.9808,13.5976,13.9904Q13.5493,14,13.5,14L6.5,14Q6.45075,14,6.40245,13.9904Q6.354150000000001,13.9808,6.30866,13.9619Q6.26316,13.9431,6.2222100000000005,13.9157Q6.18127,13.8884,6.14645,13.8536Q6.11162,13.8187,6.0842600000000004,13.7778Q6.05691,13.7368,6.03806,13.6913Q6.01921,13.6458,6.00961,13.5975Q6,13.5492,6,13.5Z" fill-rule="evenodd" fill="#868686" fill-opacity="1"/></g></g></svg>