<svg xmlns="http://www.w3.org/2000/svg" xmlns:xlink="http://www.w3.org/1999/xlink" fill="none" version="1.1" width="16" height="16" viewBox="0 0 16 16"><g><g><path d="M6,3L10,3L10,1L6,1L6,3ZM5,2L5,3.5C5,3.77614,5.22386,4,5.5,4L10.5,4C10.77614,4,11,3.77614,11,3.5L11,2L12.5,2C12.77614,2,13,2.22386,13,2.5L13,7.37596Q12.30197,7.125,11.5,7.125Q9.68782,7.125,8.406410000000001,8.406410000000001Q8.359960000000001,8.452860000000001,8.3152,8.5L5.2,8.5C5.0895399999999995,8.5,5,8.58954,5,8.7L5,9.3C5,9.41046,5.0895399999999995,9.5,5.2,9.5L7.59483,9.5Q7.2343,10.1927,7.15043,11L5.2,11C5.0895399999999995,11,5,11.0895,5,11.2L5,11.8C5,11.9105,5.0895399999999995,12,5.2,12L7.15043,12Q7.26553,13.1079,7.90169,14L3.5,14C3.223858,14,3,13.7761,3,13.5L3,2.5C3,2.22386,3.223858,2,3.5,2L5,2ZM5,6.8L5,6.2C5,6.08954,5.0895399999999995,6,5.2,6L10.8,6C10.91046,6,11,6.08954,11,6.2L11,6.8C11,6.91046,10.91046,7,10.8,7L5.2,7C5.0895399999999995,7,5,6.91046,5,6.8ZM13.2863,14.3635C12.75049,14.6978,12.13158,14.875,11.5,14.875C9.636040000000001,14.875,8.125,13.364,8.125,11.5C8.125,9.63604,9.636040000000001,8.125,11.5,8.125C13.364,8.125,14.875,9.63604,14.875,11.5C14.875,12.2696,14.612,13.0161,14.1295,13.6157L14.7881,14.2743C14.9834,14.4695,14.9834,14.7861,14.7881,14.9814L14.6997,15.0698C14.6059,15.1635,14.4788,15.2162,14.3462,15.2162C14.2136,15.2162,14.0864,15.1635,13.9926,15.0698L13.2863,14.3635ZM11.48926,13.75C12.7319,13.75,13.7393,12.7426,13.7393,11.5C13.7393,10.25736,12.7319,9.25,11.48926,9.25C10.24662,9.25,9.23926,10.25736,9.23926,11.5C9.23926,12.7426,10.24662,13.75,11.48926,13.75Z" fill-rule="evenodd" fill="#868686" fill-opacity="1"/></g></g></svg>