<svg xmlns="http://www.w3.org/2000/svg" xmlns:xlink="http://www.w3.org/1999/xlink" fill="none" version="1.1" width="40" height="40" viewBox="0 0 40 40"><defs><linearGradient x1="0.4378318786621094" y1="1.3997859954833984" x2="0.751497745513916" y2="0" id="master_svg0_268_21808"><stop offset="0%" stop-color="#1C6EFF" stop-opacity="1"/><stop offset="100%" stop-color="#B3DDFF" stop-opacity="1"/></linearGradient></defs><g><g><ellipse cx="20" cy="20" rx="20" ry="20" fill="#E6F1FF" fill-opacity="1"/><ellipse cx="20" cy="20" rx="19.375" ry="19.375" stroke="url(#master_svg0_268_21808)" fill-opacity="0" fill="none" stroke-width="1.25"/></g><g style="opacity:0.30000001192092896;"><path d="M27.80884366874695,1.587278997951599Q29.34194366874695,2.237490226951599,30.74634366874695,3.132284226951599Q32.15074366874695,4.027084226951599,33.387843668746946,5.141824226951599L10.008283668746948,37.325174226951596Q9.241903668746948,36.883174226951596,8.51754366874695,36.375274226951596Q7.7931836687469485,35.8673742269516,7.116503668746948,35.2974742269516Q6.439823668746948,34.7276742269516,5.816093668746948,34.1002742269516Q5.192373668746948,33.4728742269516,4.626483668746948,32.7927742269516Q4.060593668746948,32.1127742269516,3.556953668746948,31.385474226951597Q3.053313668746948,30.658174226951598,2.6158636687469485,29.8891742269516Q2.1784136687469484,29.120174226951598,1.8105626687469483,28.3156742269516Q1.4427156687469482,27.5110742269516,1.1473454597469483,26.6771742269516L27.80884366874695,1.587278997951599ZM14.418943668746948,39.2052742269516Q12.852443668746949,38.7500742269516,11.380343668746947,38.0470742269516L34.23554366874695,5.951914226951599Q35.15784366874695,6.8865442269515995,35.95004366874695,7.933734226951599L14.418943668746948,39.2052742269516Z" fill-rule="evenodd" fill="#BFDFFF" fill-opacity="1"/></g></g></svg>