<svg xmlns="http://www.w3.org/2000/svg" xmlns:xlink="http://www.w3.org/1999/xlink" fill="none" version="1.1" width="14" height="14" viewBox="0 0 14 14"><g><g><path d="M6.9999847412109375,13.5625Q7.161084741210938,13.5625,7.321994741210937,13.5546Q7.482894741210938,13.5467,7.643224741210937,13.5309Q7.8035447412109376,13.5151,7.962904741210938,13.4915Q8.122254741210938,13.4678,8.280264741210939,13.4364Q8.438264741210938,13.405,8.594544741210937,13.3658Q8.750814741210938,13.3267,8.904974741210937,13.2799Q9.059144741210938,13.2332,9.210824741210937,13.1789Q9.362504741210937,13.1246,9.511344741210937,13.063Q9.660174741210938,13.0013,9.805814741210938,12.9324Q9.951444741210938,12.8635,10.093524741210938,12.7876Q10.235604741210938,12.7117,10.373784741210937,12.6288Q10.511984741210938,12.546,10.645884741210937,12.4565Q10.779884741210937,12.367,10.909284741210937,12.271Q11.038684741210938,12.1751,11.163184741210937,12.0729Q11.287684741210937,11.9707,11.407084741210937,11.8625Q11.526484741210938,11.7543,11.640384741210937,11.6404Q11.754284741210938,11.5265,11.862484741210938,11.4071Q11.970684741210938,11.2877,12.072884741210938,11.1632Q12.175084741210938,11.0387,12.270984741210938,10.9093Q12.366984741210938,10.7799,12.456484741210938,10.6459Q12.545984741210937,10.512,12.628784741210938,10.3738Q12.711684741210938,10.23562,12.787584741210937,10.09354Q12.863484741210938,9.95146,12.932384741210937,9.80583Q13.001284741210938,9.66019,13.062984741210938,9.51136Q13.124584741210937,9.36252,13.178884741210938,9.21084Q13.233184741210938,9.05916,13.279884741210937,8.90499Q13.326684741210938,8.75083,13.365784741210938,8.59456Q13.404984741210937,8.43828,13.436384741210938,8.280280000000001Q13.467784741210938,8.12227,13.491484741210938,7.96292Q13.515084741210938,7.80356,13.530884741210938,7.64324Q13.546684741210937,7.48291,13.554584741210938,7.32201Q13.562484741210938,7.1611,13.562484741210938,7Q13.562484741210938,6.8389,13.554584741210938,6.67799Q13.546684741210937,6.51709,13.530884741210938,6.35676Q13.515084741210938,6.19644,13.491484741210938,6.03708Q13.467784741210938,5.87772,13.436384741210938,5.71972Q13.404984741210937,5.56171,13.365784741210938,5.40544Q13.326684741210938,5.24917,13.279884741210937,5.09501Q13.233184741210938,4.94084,13.178884741210938,4.78916Q13.124584741210937,4.63748,13.062984741210938,4.48864Q13.001284741210938,4.3398,12.932384741210937,4.19417Q12.863484741210938,4.04854,12.787584741210937,3.90646Q12.711684741210938,3.76438,12.628784741210938,3.6262Q12.545984741210937,3.48802,12.456484741210938,3.35407Q12.366984741210938,3.22012,12.270984741210938,3.09072Q12.175084741210938,2.96133,12.072884741210938,2.83679Q11.970684741210938,2.71226,11.862484741210938,2.59289Q11.754284741210938,2.47353,11.640384741210937,2.35961Q11.526484741210938,2.2457000000000003,11.407084741210937,2.13751Q11.287684741210937,2.0293200000000002,11.163184741210937,1.92712Q11.038684741210938,1.82492,10.909284741210937,1.72895Q10.779884741210937,1.63298,10.645884741210937,1.54348Q10.511984741210938,1.45398,10.373784741210937,1.371156Q10.235604741210938,1.2883339999999999,10.093524741210938,1.212392Q9.951444741210938,1.136449,9.805814741210938,1.06757Q9.660174741210938,0.998691,9.511344741210937,0.937041Q9.362504741210937,0.87539,9.210824741210937,0.821117Q9.059144741210938,0.7668440000000001,8.904974741210937,0.720079Q8.750814741210938,0.673314,8.594544741210937,0.63417Q8.438264741210938,0.595026,8.280264741210939,0.563597Q8.122254741210938,0.5321675,7.962904741210938,0.5085291Q7.8035447412109376,0.4848908,7.643224741210937,0.4691002Q7.482894741210938,0.4533096,7.321994741210937,0.44540482Q7.161084741210938,0.4375,6.9999847412109375,0.4375Q6.838884741210937,0.4375,6.677974741210938,0.44540482Q6.517074741210937,0.4533096,6.356744741210938,0.4691002Q6.1964247412109374,0.4848908,6.037064741210937,0.5085291Q5.8777047412109376,0.5321675,5.719704741210937,0.563597Q5.561694741210937,0.595026,5.405424741210937,0.63417Q5.249154741210938,0.673314,5.094994741210938,0.720079Q4.940824741210937,0.7668440000000001,4.789144741210937,0.821117Q4.6374647412109375,0.87539,4.488624741210938,0.937041Q4.339784741210938,0.998691,4.194154741210937,1.06757Q4.0485247412109375,1.136449,3.9064447412109375,1.212392Q3.7643647412109376,1.2883339999999999,3.6261847412109374,1.371156Q3.4880047412109376,1.45398,3.3540547412109376,1.54348Q3.2201047412109376,1.63298,3.0907047412109376,1.72895Q2.9613147412109373,1.82492,2.8367747412109376,1.92712Q2.7122447412109376,2.0293200000000002,2.5928747412109376,2.13751Q2.4735147412109373,2.2457000000000003,2.3595947412109375,2.35961Q2.2456847412109378,2.47353,2.1374947412109373,2.59289Q2.0293047412109377,2.71226,1.9271047412109374,2.83679Q1.8249047412109376,2.96133,1.7289347412109375,3.09072Q1.6329647412109376,3.22012,1.5434647412109375,3.35407Q1.4539647412109376,3.48802,1.3711407412109375,3.6262Q1.2883187412109374,3.76438,1.2123767412109374,3.90646Q1.1364337412109375,4.04854,1.0675547412109374,4.19417Q0.9986757412109375,4.3398,0.9370257412109375,4.48864Q0.8753747412109375,4.63748,0.8211017412109375,4.78916Q0.7668287412109376,4.94084,0.7200637412109375,5.09501Q0.6732987412109375,5.24917,0.6341547412109375,5.40544Q0.5950107412109376,5.56171,0.5635817412109375,5.71972Q0.5321522412109375,5.87772,0.5085138412109375,6.03708Q0.4848755412109375,6.19644,0.4690849412109375,6.35676Q0.4532943412109375,6.51709,0.4453895612109375,6.67799Q0.4374847412109375,6.8389,0.4374847412109375,7Q0.4374847412109375,7.1611,0.4453895612109375,7.32201Q0.4532943412109375,7.48291,0.4690849412109375,7.64324Q0.4848755412109375,7.80356,0.5085138412109375,7.96292Q0.5321522412109375,8.12227,0.5635817412109375,8.280280000000001Q0.5950107412109376,8.43828,0.6341547412109375,8.59456Q0.6732987412109375,8.75083,0.7200637412109375,8.90499Q0.7668287412109376,9.05916,0.8211017412109375,9.21084Q0.8753747412109375,9.36252,0.9370257412109375,9.51136Q0.9986757412109375,9.66019,1.0675547412109374,9.80583Q1.1364337412109375,9.95146,1.2123767412109374,10.09354Q1.2883187412109374,10.23562,1.3711407412109375,10.3738Q1.4539647412109376,10.512,1.5434647412109375,10.6459Q1.6329647412109376,10.7799,1.7289347412109375,10.9093Q1.8249047412109376,11.0387,1.9271047412109374,11.1632Q2.0293047412109377,11.2877,2.1374947412109373,11.4071Q2.2456847412109378,11.5265,2.3595947412109375,11.6404Q2.4735147412109373,11.7543,2.5928747412109376,11.8625Q2.7122447412109376,11.9707,2.8367747412109376,12.0729Q2.9613147412109373,12.1751,3.0907047412109376,12.271Q3.2201047412109376,12.367,3.3540547412109376,12.4565Q3.4880047412109376,12.546,3.6261847412109374,12.6288Q3.7643647412109376,12.7117,3.9064447412109375,12.7876Q4.0485247412109375,12.8635,4.194154741210937,12.9324Q4.339784741210938,13.0013,4.488624741210938,13.063Q4.6374647412109375,13.1246,4.789144741210937,13.1789Q4.940824741210937,13.2332,5.094994741210938,13.2799Q5.249154741210938,13.3267,5.405424741210937,13.3658Q5.561694741210937,13.405,5.719704741210937,13.4364Q5.8777047412109376,13.4678,6.037064741210937,13.4915Q6.1964247412109374,13.5151,6.356744741210938,13.5309Q6.517074741210937,13.5467,6.677974741210938,13.5546Q6.838884741210937,13.5625,6.9999847412109375,13.5625ZM9.066464741210938,9.34093L4.926864741210937,9.34093C4.775104741210938,9.34093,4.652084741210937,9.21791,4.652084741210937,9.06615L4.652084741210937,4.93347C4.652084741210937,4.78171,4.775104741210938,4.65869,4.926864741210937,4.65869L9.066464741210938,4.65869C9.218224741210937,4.65869,9.341244741210938,4.78171,9.341244741210938,4.93347L9.341244741210938,9.06615C9.341244741210938,9.21791,9.218224741210937,9.34093,9.066464741210938,9.34093Z" fill-rule="evenodd" fill="#CCCCCC" fill-opacity="1"/></g></g></svg>