<svg xmlns="http://www.w3.org/2000/svg" xmlns:xlink="http://www.w3.org/1999/xlink" fill="none" version="1.1" width="24" height="24" viewBox="0 0 24 24"><defs><clipPath id="master_svg0_249_22945"><rect x="0" y="0" width="24" height="24" rx="0"/></clipPath></defs><g clip-path="url(#master_svg0_249_22945)"><g><path d="M20.276415234375,3.9429931640625L14.734815234375,19.7762931640625L11.568115234375,12.6513231640625L4.443115234375,9.4846631640625L20.276415234375,3.9429931640625Z" fill="#61A0F2" fill-opacity="1"/><path d="M20.026715234375,3.2295821640625L4.193421234375,8.7712531640625Q4.045851234375,8.8228931640625,3.930882234375,8.928853164062499Q3.815913234375,9.0348131640625,3.752415234375,9.1776831640625Q3.722180234375,9.2457131640625,3.705798234375,9.3183331640625Q3.689416234375,9.3909531640625,3.687516234375,9.4653731640625Q3.685616234375,9.5397931640625,3.698271234375,9.6131531640625Q3.710926234375,9.6865131640625,3.7376502343749998,9.755993164062499Q3.764374234375,9.825473164062501,3.804140234375,9.888403164062499Q3.8439052343749998,9.9513431640625,3.895185234375,10.0053031640625Q3.946464234375,10.0592731640625,4.007287234375,10.1022031640625Q4.068109234375,10.1451231640625,4.136137234375,10.1753631640625L10.995485234375,13.2239531640625L14.044085234375,20.0832931640625Q14.107575234375,20.2261931640625,14.222545234375,20.3320931640625Q14.337515234375,20.4380931640625,14.485115234375,20.4896931640625Q14.555315234375,20.5142931640625,14.629115234375,20.5246931640625Q14.702815234375,20.5351931640625,14.777115234375,20.5309931640625Q14.851415234375,20.5267931640625,14.923515234375,20.5081931640625Q14.995615234375,20.4895931640625,15.062715234375,20.4573931640625Q15.129715234375,20.4250931640625,15.189215234375,20.3802931640625Q15.248715234375,20.3354931640625,15.298315234375,20.2799931640625Q15.347915234375,20.2244931640625,15.385815234375,20.1603931640625Q15.423615234375,20.0962931640625,15.448215234375,20.0259931640625L20.989815234375,4.1926871640625Q21.032315234375,4.0714461640625,21.032315234375,3.94299315639674Q21.032315234375,3.8145401640625,20.989815234375,3.6932991640625Q20.940215234375,3.5513931640625,20.840015234375,3.4392951640625Q20.739815234375,3.3271981640625,20.604315234375,3.2619751640625Q20.468915234375,3.1967521640625,20.318815234375002,3.1883331640625Q20.168615234375,3.1799151640625,20.026715234375,3.2295821640625ZM6.492265234375,9.5682631640625L11.875095234375,11.9606231640625Q12.003345234375,12.0176231640625,12.102575234375,12.1168631640625Q12.201815234375001,12.2161031640625,12.258815234375,12.3443431640625L14.651215234375,17.7271931640625L19.044415234375002,5.1750031640625L6.492265234375,9.5682631640625Z" fill-rule="evenodd" fill="#61A0F2" fill-opacity="1"/></g><g><path d="M19.74174109375,3.4085291640625L11.03340709375,12.1168631640625Q10.98076709375,12.1695031640625,10.93940809375,12.2314031640625Q10.89804909375,12.2932931640625,10.86956109375,12.3620731640625Q10.84107209375,12.4308531640625,10.82654909375,12.5038631640625Q10.81202609375,12.5768831640625,10.81202609375,12.6513231640625Q10.81202609375,12.7257731640625,10.82654909375,12.7987831640625Q10.84107209375,12.8717931640625,10.86956109375,12.9405731640625Q10.89804909375,13.0093531640625,10.93940809375,13.0712531640625Q10.98076709375,13.1331531640625,11.03340709375,13.1857931640625Q11.13971909375,13.2921031640625,11.27862109375,13.3496331640625Q11.41752409375,13.4071731640625,11.56787109375,13.4071731640625Q11.71821809375,13.4071731640625,11.85712109375,13.3496331640625Q11.99602309375,13.2921031640625,12.10233509375,13.1857931640625L20.810671093750003,4.4774571640625Q20.91698109375,4.3711451640625,20.97451109375,4.2322431640625Q21.03205109375,4.0933401640625,21.03205109375,3.9429931640625Q21.03205109375,3.7926461640625,20.97451109375,3.6537431640625Q20.91698109375,3.5148411640625,20.810671093750003,3.4085291640625Q20.75803109375,3.3558891640625,20.696131093749997,3.3145301640625Q20.63423109375,3.2731711640625,20.56545109375,3.2446831640625Q20.496671093750003,3.2161941640625002,20.42366109375,3.2016711640624997Q20.350651093750002,3.1871481640625,20.27620109375,3.1871481640625Q20.20176109375,3.1871481640625,20.12874109375,3.2016711640624997Q20.055731093749998,3.2161941640625002,19.98695109375,3.2446831640625Q19.91817109375,3.2731711640625,19.85628109375,3.3145301640625Q19.794381093749998,3.3558891640625,19.74174109375,3.4085291640625Z" fill-rule="evenodd" fill="#61A0F2" fill-opacity="1"/></g></g></svg>